# xmcd
#
# Track frame offsets:
#	150
#	20807
#	38213
#	52242
#
# Disc length: 859 seconds
#
# Revision: 1
# Processed by: cddbd v1.5.2PL0 Copyright (c) Steve Scherf et al.
# Submitted via: audiograbber 1.83.01
#
DISCID=35035904
DTITLE=Gnosis - 7" Promo CD
DYEAR=2001
DGENRE=Metal
TTITLE0=War
TTITLE1=Summer Is Back
TTITLE2=Mystic Train
TTITLE3=Pour Elisa
EXTD=
EXTT0=
EXTT1=
EXTT2=
EXTT3=
PLAYORDER=
